<svg xmlns="http://www.w3.org/2000/svg" viewBox="0 0 512 512">
  <defs>
    <linearGradient id="grad1" x1="0%" y1="0%" x2="100%" y2="100%">
      <stop offset="0%" style="stop-color:#0ea5e9;stop-opacity:1" />
      <stop offset="100%" style="stop-color:#0369a1;stop-opacity:1" />
    </linearGradient>
    <linearGradient id="grad2" x1="0%" y1="0%" x2="0%" y2="100%">
      <stop offset="0%" style="stop-color:#ffffff;stop-opacity:1" />
      <stop offset="100%" style="stop-color:#e0f2fe;stop-opacity:1" />
    </linearGradient>
  </defs>
  <!-- Shield Background -->
  <path d="M256 32C180 32 110 60 48 96c0 140 30 280 208 384 178-104 208-244 208-384-62-36-132-64-208-64z" fill="url(#grad1)"/>
  <!-- Simplified Shield Detail -->
  <path d="M256 80c-55 0-105 20-150 48 0 100 20 200 150 274 130-74 150-174 150-274-45-28-95-48-150-48z" fill="rgba(255,255,255,0.1)"/>
  <!-- Upward Arrow -->
  <path d="M160 300l96-96 96 96h-64v80h-64v-80h-64z" fill="url(#grad2)"/>
  <path d="M256 120l-40 40h80l-40-40z" fill="url(#grad2)"/>
  <!-- Gear Detail (Simplified) -->
  <circle cx="380" cy="380" r="40" fill="#0c4a6e" />
  <path d="M380 330l10 20h-20l10-20zM430 380l-20 10v-20l20 10zM380 430l-10-20h20l-10 20zM330 380l20-10v20l-20-10z" fill="#0ea5e9" />
</svg>